<?xml version="1.0" encoding="iso-8859-1"?>
<!-- Generator: Adobe Illustrator 18.1.1, SVG Export Plug-In . SVG Version: 6.00 Build 0)  -->
<svg version="1.1" id="Capa_1" xmlns="http://www.w3.org/2000/svg" xmlns:xlink="http://www.w3.org/1999/xlink" x="0px" y="0px"
	 viewBox="0 0 15.281 15.281" style="enable-background:new 0 0 15.281 15.281;" xml:space="preserve">
<g>
	<g>
		<path style="fill:#030104;" d="M13.481,15.281c-0.077,0-0.154-0.019-0.224-0.056l-4.008-2.124
			c-0.542,0.116-1.082,0.176-1.608,0.176c-3.946,0-7.156-2.979-7.156-6.639S3.695,0,7.641,0s7.156,2.978,7.156,6.638
			c0,1.809-0.809,3.549-2.225,4.801c-0.067,1.099,0.888,2.659,1.279,3.188c0.118,0.161,0.102,0.376-0.041,0.52
			C13.724,15.234,13.602,15.281,13.481,15.281z M9.317,12.238c0.077,0,0.154,0.02,0.223,0.056l2.761,1.463
			c-0.382-0.767-0.729-1.739-0.604-2.573c0.015-0.097,0.064-0.186,0.143-0.252c1.309-1.101,2.059-2.666,2.059-4.293
			c0-3.2-2.807-5.804-6.257-5.804S1.385,3.439,1.385,6.639s2.806,5.804,6.256,5.804c0.509,0,1.035-0.063,1.563-0.19
			C9.241,12.243,9.279,12.238,9.317,12.238z"/>
	</g>
</g>
<g>
</g>
<g>
</g>
<g>
</g>
<g>
</g>
<g>
</g>
<g>
</g>
<g>
</g>
<g>
</g>
<g>
</g>
<g>
</g>
<g>
</g>
<g>
</g>
<g>
</g>
<g>
</g>
<g>
</g>
</svg>
